<?xml version="1.0" standalone="no"?>
<!DOCTYPE svg PUBLIC "-//W3C//DTD SVG 20010904//EN"
 "http://www.w3.org/TR/2001/REC-SVG-20010904/DTD/svg10.dtd">
<svg version="1.0" xmlns="http://www.w3.org/2000/svg"
 width="700.000000pt" height="700.000000pt" viewBox="0 0 700.000000 700.000000"
 preserveAspectRatio="xMidYMid meet">
<metadata>
Created by potrace 1.14, written by Peter Selinger 2001-2017
</metadata>
<g transform="translate(0.000000,700.000000) scale(0.100000,-0.100000)"
fill="#000000" stroke="none">
<path d="M6447 6653 c-1 -1 -150 -4 -332 -8 -346 -6 -569 -11 -1000 -20 -143
-3 -368 -7 -500 -10 -132 -3 -361 -7 -510 -10 -148 -3 -373 -8 -500 -10 -327
-7 -675 -14 -1005 -20 -157 -3 -382 -8 -500 -10 -118 -3 -343 -7 -500 -10
-157 -3 -368 -7 -470 -10 -305 -7 -887 -18 -1013 -19 l-117 -1 2 -3090 3
-3090 290 1 c286 1 1603 11 2480 19 248 2 756 6 1130 10 982 8 1820 15 2375
20 267 2 538 4 603 5 l117 0 -5 123 c-11 262 -18 434 -30 687 -5 115 -10 229
-20 475 -3 72 -7 173 -10 225 -7 138 -14 305 -20 465 -3 77 -7 181 -10 230 -2
50 -7 151 -10 225 -3 74 -8 178 -10 230 -5 115 -14 318 -20 460 -2 58 -7 159
-10 225 -3 66 -8 172 -10 235 -8 214 -15 375 -20 470 -6 112 -13 273 -20 460
-3 74 -7 180 -10 235 -3 55 -7 161 -10 235 -3 74 -7 173 -10 220 -2 47 -7 157
-11 245 -3 88 -7 189 -9 225 -2 63 -15 337 -20 450 -2 30 -3 74 -4 96 l-1 42
-141 -2 c-77 0 -141 -2 -142 -3z m-182 -1285 c4 -35 8 -74 10 -88 10 -64 15
-109 19 -155 3 -27 8 -67 11 -87 3 -21 7 -55 10 -75 3 -21 7 -54 10 -73 2 -19
7 -56 10 -82 3 -27 7 -67 10 -90 3 -24 7 -59 9 -78 2 -19 7 -57 11 -85 3 -27
11 -86 16 -130 6 -44 12 -93 14 -110 6 -56 17 -150 20 -175 3 -22 9 -67 20
-155 2 -16 7 -57 11 -90 3 -33 8 -68 9 -77 2 -9 7 -48 10 -85 4 -37 8 -72 9
-78 1 -12 -16 -12 -619 -20 -269 -3 -634 -8 -810 -10 -661 -9 -1571 -21 -2305
-30 -256 -3 -600 -7 -765 -10 -165 -2 -551 -7 -859 -11 l-558 -6 6 108 c4 60
9 134 11 164 2 30 7 96 10 145 3 50 8 124 10 165 3 41 7 109 10 150 5 76 10
162 20 300 3 41 7 116 10 165 3 50 8 113 10 141 2 29 7 107 10 175 7 118 11
159 17 164 2 2 95 6 208 9 113 4 257 9 320 11 63 2 198 7 300 10 102 3 235 8
295 10 61 2 191 7 290 10 99 3 236 8 305 10 69 2 206 7 305 10 99 4 230 8 290
10 61 2 198 6 305 10 107 3 251 8 320 10 69 3 199 7 290 10 91 3 221 7 290 10
69 2 211 7 315 10 105 4 233 8 285 10 52 2 192 7 310 10 118 4 253 8 300 10
47 2 189 6 315 10 127 4 231 7 232 8 1 1 71 3 156 5 l155 3 7 -63z"/>
<path d="M4640 4922 c-54 -9 -167 -71 -223 -121 -114 -105 -161 -239 -138
-391 31 -207 123 -350 270 -424 114 -58 203 -64 336 -25 217 64 326 211 327
438 0 53 -3 110 -6 127 -27 142 -124 257 -281 333 -116 57 -205 76 -285 63z"/>
<path d="M1960 4897 c-168 -48 -325 -219 -375 -409 -56 -210 122 -474 347
-517 69 -12 195 -1 287 26 163 47 281 161 325 311 15 51 16 180 2 241 -38 167
-142 283 -299 333 -78 25 -226 33 -287 15z"/>
</g>
</svg>
